HIERARCHY
ROOT reference
{
  OFFSET 0 0 0
  CHANNELS 6 Xposition Yposition Zposition Zrotation Xrotation Yrotation
  JOINT Hips
  {
    OFFSET 0 97.8064 0
    CHANNELS 6 Xposition Yposition Zposition Zrotation Xrotation Yrotation
    JOINT ToSpine
    {
      OFFSET -2.69724 7.43032 -0.144315
      CHANNELS 6 Xposition Yposition Zposition Zrotation Xrotation Yrotation
      JOINT Spine
      {
        OFFSET -0.0310711 10.7595 1.96963
        CHANNELS 6 Xposition Yposition Zposition Zrotation Xrotation Yrotation
        JOINT Spine1
        {
          OFFSET 13.1342 3.43533 0.764692
          CHANNELS 6 Xposition Yposition Zposition Zrotation Xrotation Yrotation
          JOINT Neck
          {
            OFFSET 29.8703 7.82586 -0.130764
            CHANNELS 6 Xposition Yposition Zposition Zrotation Xrotation Yrotation
            JOINT Head
            {
              OFFSET 9.52751 0.295786 -0.907742
              CHANNELS 6 Xposition Yposition Zposition Zrotation Xrotation Yrotation
              End Site
              {
                OFFSET 16.4037 0.713936 2.7358
              }
            }
          }
          JOINT LeftShoulder
          {
            OFFSET 27.5574 4.95586 2.47156
            CHANNELS 6 Xposition Yposition Zposition Zrotation Xrotation Yrotation
            JOINT LeftArm
            {
              OFFSET 1.20734 -0.998971 20.1238
              CHANNELS 6 Xposition Yposition Zposition Zrotation Xrotation Yrotation
              JOINT LeftForeArm
              {
                OFFSET 26.8049 -0.0536703 -0.155908
                CHANNELS 6 Xposition Yposition Zposition Zrotation Xrotation Yrotation
                JOINT LeftHand
                {
                  OFFSET 26.6817 0 0.320147
                  CHANNELS 6 Xposition Yposition Zposition Zrotation Xrotation Yrotation
                  End Site
                  {
                    OFFSET 18.6119 0 0.382219
                  }
                }
              }
            }
          }
          JOINT RightShoulder
          {
            OFFSET 27.5927 4.71444 -2.65209
            CHANNELS 6 Xposition Yposition Zposition Zrotation Xrotation Yrotation
            JOINT RightArm
            {
              OFFSET 2.83739 -1.17114 -18.7564
              CHANNELS 6 Xposition Yposition Zposition Zrotation Xrotation Yrotation
              JOINT RightForeArm
              {
                OFFSET 28.839 -0.0548439 1.22491
                CHANNELS 6 Xposition Yposition Zposition Zrotation Xrotation Yrotation
                JOINT RightHand
                {
                  OFFSET 26.5114 0 -0.101894
                  CHANNELS 6 Xposition Yposition Zposition Zrotation Xrotation Yrotation
                  End Site
                  {
                    OFFSET 18.2168 0 0
                  }
                }
              }
            }
          }
        }
      }
    }
    JOINT LeftUpLeg
    {
      OFFSET -4.76168 -1.9167 -10.2353
      CHANNELS 6 Xposition Yposition Zposition Zrotation Xrotation Yrotation
      JOINT LeftLeg
      {
        OFFSET 2.55951 -42.0585 -8.02213
        CHANNELS 6 Xposition Yposition Zposition Zrotation Xrotation Yrotation
        JOINT LeftFoot
        {
          OFFSET 3.16357 -42.5282 -3.95426
          CHANNELS 6 Xposition Yposition Zposition Zrotation Xrotation Yrotation
          JOINT LeftToeBase
          {
            OFFSET 0.346054 -6.02161 12.8035
            CHANNELS 6 Xposition Yposition Zposition Zrotation Xrotation Yrotation
            End Site
            {
              OFFSET 0.134235 -1.35082 5.13018
            }
          }
        }
      }
    }
    JOINT RightUpLeg
    {
      OFFSET -4.94151 -1.41743 10.6446
      CHANNELS 6 Xposition Yposition Zposition Zrotation Xrotation Yrotation
      JOINT RightLeg
      {
        OFFSET -2.56294 -42.0364 -7.94377
        CHANNELS 6 Xposition Yposition Zposition Zrotation Xrotation Yrotation
        JOINT RightFoot
        {
          OFFSET -3.0952 -42.555 -4.02241
          CHANNELS 6 Xposition Yposition Zposition Zrotation Xrotation Yrotation
          JOINT RightToeBase
          {
            OFFSET -0.0828122 -6.13587 12.8035
            CHANNELS 6 Xposition Yposition Zposition Zrotation Xrotation Yrotation
            End Site
            {
              OFFSET -0.131328 -1.35082 5.13018
            }
          }
        }
      }
    }
  }
}
MOTION
Frames:	7
Frame Time:	0.0333333
0 0 0 0 0 -0 0 97.8064 0 -9.21641 -69.4912 -99.4257 -2.69724 7.43032 -0.144315 -70.1915 -6.18407e-015 88.8779 -0.0310711 10.7595 1.96963 64.9783 69.5887 25.2871 13.1342 3.43533 0.764692 4.60351 20.8703 1.40837 29.8703 7.82586 -0.130764 -158.867 19.9774 178.863 9.52751 0.295786 -0.907742 -163.551 59.618 -171.956 27.5574 4.95586 2.47156 3.81932 1.88815 -1.18989 1.20734 -0.998971 20.1238 -90 -2.89528e-014 -90 26.8049 -0.0536703 -0.155908 -2.27865e-008 -1.09882e-007 -6.77748e-008 26.6817 -2.84217e-014 0.320147 -4.83776e-016 2.19066e-016 -1.61484e-015 27.5927 4.71444 -2.65209 2.06088 1.77022 3.86625 2.83739 -1.17114 -18.7564 -88.2385 5 88.8941 28.839 -0.0548439 1.22491 1.27948e-006 4.79839e-007 0.0043221 26.5114 0 -0.101894 -1.10621e-012 -4.76474e-009 -0.0296889 -4.76168 -1.9167 -10.2353 -54.5197 2.7833 99.4142 2.55951 -42.0585 -8.02213 -1.21668 19.2657 -6.32176 3.16357 -42.5282 -3.95426 3.72058 -5.93042 -0.842831 0.346054 -6.02161 12.8035 0.207147 -0.61891 0.346907 -4.94151 -1.41743 10.6446 -55.5919 -0.189965 81.4537 -2.56294 -42.0364 -7.94377 1.38344 13.6714 6.74024 -3.0952 -42.555 -4.02241 -6.15803 -1.03764 0.970027 -0.0828122 -6.13587 12.8035 1.52296 -4.82373 -7.85573 
0 0 0 0 0 -0 7.27077 93.4833 3.44517 71.3079 -35.3455 -9.717 -2.69724 7.43032 -0.144315 -70.1915 2.38542e-015 88.8779 -0.0310711 10.7595 1.96963 74.6188 72.4743 6.80472 13.1342 3.43533 0.764692 3.95863 21.657 5.32729 29.8703 7.82586 -0.130764 -121.536 34.8639 155.562 9.52751 0.295786 -0.907742 156.074 77.108 -129.823 27.5574 4.95586 2.47156 0.491441 -14.7132 -23.271 1.20734 -0.998971 20.1238 -62.8531 33.435 -145.458 26.8049 -0.0536703 -0.155908 14.6008 -2.70662 -99.4391 26.6817 -2.84217e-014 0.320147 -0.545658 0.000114646 3.60263 27.5927 4.71444 -2.65209 -2.29261 7.30656 45.3891 2.83739 -1.17114 -18.7564 -121.161 -6.0636 90.6249 28.839 -0.0548439 1.22491 18.9058 -4.01851 78.3417 26.5114 1.42109e-014 -0.101894 1.32125 0.000581864 2.87947 -4.76168 -1.9167 -10.2353 -47.3291 10.0827 96.2292 2.55951 -42.0585 -8.02213 -2.92152 44.9301 -5.08923 3.16357 -42.5282 -3.95426 1.91728 -15.1701 -1.28959 0.346054 -6.02161 12.8035 2.36188 -7.59919 9.49022 -4.94151 -1.41743 10.6446 -42.7599 -11.816 77.5568 -2.56294 -42.0364 -7.94377 1.44603 35.2334 0.0730506 -3.0952 -42.555 -4.02241 -3.17587 -3.33059 0.723932 -0.0828122 -6.13587 12.8035 0.893848 -5.14719 -2.38314 
0 0 0 0 0 -0 7.17044 93.5254 3.47255 71.2926 -35.4733 -9.78412 -2.69724 7.43032 -0.144315 -70.1915 -2.38542e-015 88.8779 -0.0310711 10.7595 1.96963 74.4604 72.6018 6.89599 13.1342 3.43533 0.764692 3.94967 21.8058 5.33864 29.8703 7.82586 -0.130764 -121.103 34.3722 154.662 9.52751 0.295786 -0.907742 161.03 77.546 -134.071 27.5574 4.95586 2.47156 0.485323 -14.7781 -23.2129 1.20734 -0.998971 20.1238 -62.6797 33.4468 -145.427 26.8049 -0.0536703 -0.155908 15.224 -2.77835 -99.2718 26.6817 -2.84217e-014 0.320147 -0.515794 0.000439607 3.39216 27.5927 4.71444 -2.65209 -2.30182 7.28244 45.5915 2.83739 -1.17114 -18.7564 -121.132 -5.91553 90.6894 28.839 -0.0548439 1.22491 17.3717 -3.77474 78.0407 26.5114 2.84217e-014 -0.101894 1.23986 0.00220897 2.96763 -4.76168 -1.9167 -10.2353 -47.3655 10.0638 96.215 2.55951 -42.0585 -8.02213 -3.06649 45.0123 -6.21375 3.16357 -42.5282 -3.95426 0.513909 -14.6085 -1.25583 0.346054 -6.02161 12.8035 2.8787 -8.95418 11.9573 -4.94151 -1.41743 10.6446 -42.6695 -11.702 77.78 -2.56294 -42.0364 -7.94377 1.47792 35.4521 0.343908 -3.0952 -42.555 -4.02241 -3.35898 -3.09259 0.730885 -0.0828122 -6.13587 12.8035 0.984973 -5.38844 -2.95999 
0 0 0 0 0 -0 7.13143 93.4863 3.49609 71.3627 -35.4757 -9.7425 -2.69724 7.43032 -0.144315 -70.1915 7.95139e-016 88.8779 -0.0310711 10.7595 1.96963 73.3785 72.5707 7.97473 13.1342 3.43533 0.764692 4.4269 21.8382 5.27411 29.8703 7.82586 -0.130764 -120.978 32.9306 153.9 9.52751 0.295786 -0.907742 170.264 77.2204 -141.943 27.5574 4.95586 2.47156 0.454587 -14.967 -23.3427 1.20734 -0.998971 20.1238 -62.9134 33.2606 -145.491 26.8049 -0.0536703 -0.155908 14.8936 -2.68814 -99.1723 26.6817 -2.84217e-014 0.320147 -0.532427 0.000946073 3.50444 27.5927 4.71444 -2.65209 -2.30836 7.29245 45.6489 2.83739 -1.17114 -18.7564 -121.192 -5.86204 90.8531 28.839 -0.0548439 1.22491 17.6639 -3.86353 77.9786 26.5114 1.42109e-014 -0.101894 1.23754 0.0047043 2.89387 -4.76168 -1.9167 -10.2353 -47.3674 10.1225 96.2008 2.55951 -42.0585 -8.02213 -3.04182 45.041 -5.96781 3.16357 -42.5282 -3.95426 0.86444 -14.6442 -1.25789 0.346054 -6.02161 12.8035 2.80623 -8.76375 11.5547 -4.94151 -1.41743 10.6446 -42.6789 -11.7327 77.6695 -2.56294 -42.0364 -7.94377 1.47562 35.5295 0.330564 -3.0952 -42.555 -4.02241 -3.04677 -3.34395 0.711327 -0.0828122 -6.13587 12.8035 0.929132 -5.01332 -2.79484 
0 0 0 0 0 -0 7.06482 93.5326 3.54962 71.4406 -35.4545 -9.77124 -2.69724 7.43032 -0.144315 -70.1915 -1.59028e-015 88.8779 -0.0310711 10.7595 1.96963 72.9637 72.7716 8.043 13.1342 3.43533 0.764692 4.33182 21.9346 5.74095 29.8703 7.82586 -0.130764 -121.605 33.637 154.665 9.52751 0.295786 -0.907742 166.488 77.282 -138.811 27.5574 4.95586 2.47156 0.397377 -15.3098 -23.604 1.20734 -0.998971 20.1238 -62.9308 33.0848 -145.506 26.8049 -0.0536703 -0.155908 14.8985 -2.64881 -99.028 26.6817 -1.42109e-014 0.320147 -0.520208 0.00160567 3.4597 27.5927 4.71444 -2.65209 -2.24668 7.20848 45.1886 2.83739 -1.17114 -18.7564 -121.315 -6.24515 90.3252 28.839 -0.0548439 1.22491 18.0462 -3.88247 78.1757 26.5114 4.26326e-014 -0.101894 1.28843 0.00788941 2.96614 -4.76168 -1.9167 -10.2353 -47.395 10.0076 96.0183 2.55951 -42.0585 -8.02213 -3.05707 45.0332 -6.10773 3.16357 -42.5282 -3.95426 1.20094 -14.4293 -1.24223 0.346054 -6.02161 12.8035 2.76826 -8.76377 11.8796 -4.94151 -1.41743 10.6446 -42.7245 -11.745 77.7238 -2.56294 -42.0364 -7.94377 1.47676 35.5451 0.377905 -3.0952 -42.555 -4.02241 -3.20864 -3.24806 0.722958 -0.0828122 -6.13587 12.8035 0.952793 -5.06238 -2.95191 
0 0 0 0 0 -0 7.01609 93.501 3.58594 71.5575 -35.555 -9.83027 -2.69724 7.43032 -0.144315 -70.1915 -3.18055e-015 88.8779 -0.0310711 10.7595 1.96963 73.5809 72.7391 7.4395 13.1342 3.43533 0.764692 4.17744 21.932 5.51406 29.8703 7.82586 -0.130764 -121.463 33.476 154.827 9.52751 0.295786 -0.907742 165.898 77.0303 -138.166 27.5574 4.95586 2.47156 0.431697 -15.1165 -23.4402 1.20734 -0.998971 20.1238 -62.8274 33.0811 -145.756 26.8049 -0.0536703 -0.155908 15.296 -2.66872 -98.8417 26.6817 -2.84217e-014 0.320147 -0.567563 0.00238933 3.56947 27.5927 4.71444 -2.65209 -2.27576 7.20879 45.5755 2.83739 -1.17114 -18.7564 -121.213 -6.06867 90.6825 28.839 -0.0548439 1.22491 17.8387 -3.87306 78.0672 26.5114 1.42109e-014 -0.101894 1.25374 0.0115884 2.90717 -4.76168 -1.9167 -10.2353 -47.5733 9.96175 96.1286 2.55951 -42.0585 -8.02213 -3.06768 44.9998 -6.23811 3.16357 -42.5282 -3.95426 1.01912 -14.3626 -1.23739 0.346054 -6.02161 12.8035 2.83205 -8.93186 12.2157 -4.94151 -1.41743 10.6446 -42.6539 -11.7285 77.9874 -2.56294 -42.0364 -7.94377 1.47659 35.7785 0.328621 -3.0952 -42.555 -4.02241 -3.16839 -3.2623 0.71963 -0.0828122 -6.13587 12.8035 0.989514 -5.39975 -2.98903 
0 0 0 0 0 -0 6.99245 93.4423 3.62595 71.637 -35.6817 -9.79736 -2.69724 7.43032 -0.144315 -70.1915 -4.37326e-015 88.8779 -0.0310711 10.7595 1.96963 73.3088 72.6082 7.95442 13.1342 3.43533 0.764692 4.56939 21.9026 5.17211 29.8703 7.82586 -0.130764 -122.17 33.619 155.397 9.52751 0.295786 -0.907742 165.372 76.8766 -138.107 27.5574 4.95586 2.47156 0.463644 -14.948 -23.2119 1.20734 -0.998971 20.1238 -62.9382 33.0975 -146.011 26.8049 -0.0536703 -0.155908 15.3712 -2.60202 -98.5627 26.6817 -2.84217e-014 0.320147 -0.580317 0.00326881 3.60406 27.5927 4.71444 -2.65209 -2.22199 7.24888 44.7087 2.83739 -1.17114 -18.7564 -121.204 -7.46077 90.3189 28.839 -0.0548439 1.22491 18.1902 -3.8696 78.3041 26.5114 1.42109e-014 -0.101894 1.29221 0.0156218 2.94891 -4.76168 -1.9167 -10.2353 -47.6922 10.0673 96.25 2.55951 -42.0585 -8.02213 -2.98294 44.9871 -5.53645 3.16357 -42.5282 -3.95426 0.772922 -14.7436 -1.26512 0.346054 -6.02161 12.8035 2.77075 -8.57527 10.8886 -4.94151 -1.41743 10.6446 -42.5176 -11.5002 78.4299 -2.56294 -42.0364 -7.94377 1.4571 36.108 0.040317 -3.0952 -42.555 -4.02241 -3.15773 -3.57543 0.734184 -0.0828122 -6.13587 12.8035 0.97948 -4.99806 -3.22457 
